HIERARCHY
ROOT Hips
{
 OFFSET 0.000000 0.000000 0.000000
 CHANNELS 6 Xposition Yposition Zposition Yrotation Xrotation Zrotation
 JOINT Chest
 {
  OFFSET 0.000000 9.581000 -0.001100
  CHANNELS 3 Yrotation Xrotation Zrotation
  JOINT Chest2
  {
   OFFSET 0.000000 9.561100 0.002200
   CHANNELS 3 Yrotation Xrotation Zrotation
   JOINT Chest3
   {
    OFFSET 0.000000 9.521100 0.000000
    CHANNELS 3 Yrotation Xrotation Zrotation
    JOINT Chest4
    {
     OFFSET 0.000000 9.511400 0.000000
     CHANNELS 3 Yrotation Xrotation Zrotation
     JOINT Neck
     {
      OFFSET 0.000000 14.375100 0.000000
      CHANNELS 3 Yrotation Xrotation Zrotation
      JOINT Head
      {
       OFFSET 0.000000 8.901200 0.004600
       CHANNELS 3 Yrotation Xrotation Zrotation
       End Site
       {
        OFFSET 0.000000 16.962200 0.002400
       }
      }
     }
     JOINT RightCollar
     {
      OFFSET -2.920100 9.518800 0.000000
      CHANNELS 3 Yrotation Xrotation Zrotation
      JOINT RightShoulder
      {
       OFFSET -13.664500 0.000000 0.000000
       CHANNELS 3 Yrotation Xrotation Zrotation
       JOINT RightElbow
       {
        OFFSET 0.000000 -29.999200 0.000000
        CHANNELS 3 Yrotation Xrotation Zrotation
        JOINT RightWrist
        {
         OFFSET 0.000000 -24.253600 0.000000
         CHANNELS 3 Yrotation Xrotation Zrotation
         End Site
         {
          OFFSET 0.000000 -17.918900 0.000000
         }
        }
       }
      }
     }
     JOINT LeftCollar
     {
      OFFSET 2.920100 9.518800 0.000000
      CHANNELS 3 Yrotation Xrotation Zrotation
      JOINT LeftShoulder
      {
       OFFSET 13.664500 0.000000 0.000000
       CHANNELS 3 Yrotation Xrotation Zrotation
       JOINT LeftElbow
       {
        OFFSET 0.000000 -29.999200 0.000000
        CHANNELS 3 Yrotation Xrotation Zrotation
        JOINT LeftWrist
        {
         OFFSET 0.000000 -24.253600 0.000000
         CHANNELS 3 Yrotation Xrotation Zrotation
         End Site
         {
          OFFSET 0.000000 -17.918900 0.000000
         }
        }
       }
      }
     }
    }
   }
  }
 }
 JOINT RightHip
 {
  OFFSET -7.797300 0.005300 0.000500
  CHANNELS 3 Yrotation Xrotation Zrotation
  JOINT RightKnee
  {
   OFFSET 0.000000 -40.663400 -0.000500
   CHANNELS 3 Yrotation Xrotation Zrotation
   JOINT RightAnkle
   {
    OFFSET 0.000000 -39.523700 -0.000900
    CHANNELS 3 Yrotation Xrotation Zrotation
    JOINT RightToe
    {
     OFFSET 0.000000 -6.418000 14.485300
     CHANNELS 3 Yrotation Xrotation Zrotation
     End Site
     {
      OFFSET 0.000000 -1.465200 6.326400
     }
    }
   }
  }
 }
 JOINT LeftHip
 {
  OFFSET 7.797300 0.005300 0.000500
  CHANNELS 3 Yrotation Xrotation Zrotation
  JOINT LeftKnee
  {
   OFFSET 0.000000 -40.663400 -0.000500
   CHANNELS 3 Yrotation Xrotation Zrotation
   JOINT LeftAnkle
   {
    OFFSET 0.000000 -39.523700 -0.000900
    CHANNELS 3 Yrotation Xrotation Zrotation
    JOINT LeftToe
    {
     OFFSET 0.000000 -6.418000 14.485300
     CHANNELS 3 Yrotation Xrotation Zrotation
     End Site
     {
      OFFSET 0.000000 -1.465200 6.326400
     }
    }
   }
  }
 }
}
MOTION
Frames: 8
Frame Time: 0.008333
0.000000 86.422400 0.000000 0.000000 -5.767877 0.000000 0.000000 11.653817 0.000000 0.000000 -5.885947 0.000000 0.000000 -0.000000 0.000000 0.000000 -0.000000 0.000000 0.000000 12.528835 0.000000 0.000000 0.711642 0.000000 0.000000 -0.000000 0.000000 0.000000 0.000000 -90.000000 0.000000 -2.309062 0.000000 0.000000 2.309062 0.000000 0.000000 -0.000000 0.000000 0.000000 -0.000000 90.000000 0.000000 -2.309062 0.000000 0.000000 2.309062 0.000000 0.000000 8.520406 0.000000 0.000000 1.905762 0.000000 -0.000000 -4.658285 0.000000 0.000000 -0.000000 0.000000 0.000000 8.520406 0.000000 0.000000 1.905762 0.000000 -0.000000 -4.658285 0.000000 0.000000 -0.000000 0.000000
-12.794390 126.872961 -5.145940 -170.667471 -44.932512 -4.648013 0.127346 25.018392 1.049624 -0.006651 3.945594 0.162557 -0.019476 6.320184 0.253639 0.086877 20.737924 0.865977 6.829840 11.405041 5.776824 6.120065 -13.525132 4.770316 1.713945 1.357773 2.963463 -13.546797 -19.102120 -7.577501 -83.289392 -32.948722 129.111585 -20.518388 -32.480856 -22.705171 -12.290475 -3.066395 0.618957 8.665381 -27.764208 8.469619 60.396574 -18.872790 -106.735937 28.126986 -38.844707 -2.340832 -11.066791 -12.994429 -9.957495 -166.766340 75.421559 -170.733928 22.445341 22.085214 -7.365744 0.000022 0.001563 0.000010 12.824560 -15.593051 -8.528874 6.390336 70.262603 -6.346638 3.823517 -13.203496 12.279166 -0.001268 0.000261 -0.000562
-12.793954 126.873160 -5.144971 -170.676745 -44.940900 -4.637590 0.141857 25.016019 1.059136 -0.010421 3.953868 0.155310 -0.011265 6.322930 0.255664 0.082166 20.740222 0.864492 6.809120 11.448269 5.788346 6.096092 -13.478544 4.788766 1.731630 1.344401 2.997508 -13.420400 -19.114609 -7.675831 -83.364129 -33.116163 129.162884 -20.477876 -32.467348 -22.646822 -12.283298 -3.055599 0.637874 8.632233 -27.780705 8.490334 60.308311 -18.884187 -106.747583 28.101276 -38.830542 -2.336517 -11.073856 -12.992595 -9.964174 -166.763165 75.420267 -170.737418 22.442534 22.085266 -7.366785 0.000654 0.001084 0.000290 12.820504 -15.587588 -8.529495 6.390746 70.258911 -6.353994 3.831967 -13.199450 12.282791 -0.000882 -0.000123 -0.000391
-12.793134 126.872588 -5.143115 -170.680382 -44.943105 -4.632010 0.142295 25.015961 1.057563 -0.006683 3.955070 0.157607 -0.008470 6.325898 0.255442 0.082950 20.741236 0.862590 6.795140 11.492808 5.800299 6.081589 -13.428330 4.802652 1.737332 1.337919 3.013003 -13.280805 -19.120859 -7.755207 -83.438786 -33.296041 129.218032 -20.436037 -32.447517 -22.585470 -12.289355 -3.056486 0.642239 8.605777 -27.785285 8.530276 60.243200 -18.901493 -106.750025 28.065375 -38.798978 -2.313716 -11.082472 -12.996499 -9.965960 -166.753954 75.418457 -170.735249 22.441253 22.085627 -7.364399 0.000072 0.001547 0.000032 12.816537 -15.587805 -8.531186 6.386602 70.252098 -6.359647 3.833863 -13.191480 12.290345 0.000176 0.000651 0.000078
-12.791798 126.872950 -5.142144 -170.693439 -44.954022 -4.623307 0.150259 25.023471 1.059078 -0.017175 3.949029 0.164282 0.001626 6.333432 0.250912 0.087909 20.744522 0.865297 6.785398 11.540379 5.808824 6.082696 -13.425761 4.795970 1.741429 1.331843 3.022412 -13.137993 -19.120365 -7.834565 -83.508114 -33.483376 129.275203 -20.388827 -32.418023 -22.514943 -12.289952 -3.054611 0.651950 8.565526 -27.780519 8.590337 60.204263 -18.917713 -106.760982 28.023444 -38.772732 -2.278037 -11.083098 -12.991090 -9.964973 -166.743731 75.417719 -170.730525 22.439086 22.086847 -7.364036 -0.000802 0.002259 -0.000356 12.823655 -15.578988 -8.527521 6.380878 70.249848 -6.363895 3.834050 -13.188938 12.299721 0.000547 0.000827 0.000242
-12.790255 126.873374 -5.141214 -170.704300 -44.965412 -4.617216 0.149969 25.027803 1.060812 -0.016931 3.952199 0.164025 0.001008 6.333650 0.251212 0.072704 20.747074 0.871790 6.785701 11.629769 5.815738 6.105696 -13.456935 4.769325 1.764957 1.330737 3.019576 -12.991433 -19.116330 -7.910672 -83.571284 -33.673416 129.334302 -20.337441 -32.377139 -22.431933 -12.270659 -3.041110 0.655808 8.529931 -27.775144 8.637746 60.177727 -18.958771 -106.763828 27.975698 -38.745324 -2.240853 -11.079606 -12.983338 -9.967869 -166.750593 75.419627 -170.728463 22.430735 22.093998 -7.375950 0.001015 0.001194 0.000450 12.821835 -15.571226 -8.523813 6.390754 70.248084 -6.357326 3.841841 -13.187840 12.302572 0.001045 0.000935 0.000463
-12.790352 126.874439 -5.140841 -170.721207 -44.983282 -4.597696 0.138102 25.036167 1.056916 -0.001342 3.960033 0.151755 -0.008970 6.331805 0.255828 0.072677 20.753008 0.871716 6.780652 11.693028 5.825843 6.084342 -13.337117 4.792306 1.777740 1.328495 3.025912 -12.847081 -19.110860 -7.982402 -83.619037 -33.860572 129.395273 -20.279934 -32.332959 -22.341927 -12.261487 -3.037974 0.655934 8.488401 -27.758139 8.687734 60.149669 -19.023051 -106.751465 27.919814 -38.715074 -2.210721 -11.068253 -12.970644 -9.979098 -166.756285 75.420985 -170.732384 22.426071 22.096144 -7.380179 0.001020 0.001085 0.000452 12.812414 -15.553358 -8.529854 6.428143 70.241053 -6.332709 3.851087 -13.187702 12.304097 0.001109 0.001296 0.000491
-12.789999 126.874212 -5.139252 -170.727437 -44.989532 -4.587482 0.134083 25.039555 1.056803 -0.006567 3.959903 0.149674 -0.010129 6.334255 0.255489 0.076172 20.757837 0.869966 6.779596 11.743613 5.835305 6.075753 -13.259025 4.805736 1.788272 1.325137 3.036139 -12.711581 -19.103196 -8.052941 -83.649829 -34.040125 129.457593 -20.218601 -32.286622 -22.251438 -12.256897 -3.034740 0.660040 8.403160 -27.703238 8.772075 60.174723 -19.095968 -106.765079 27.858356 -38.678278 -2.191912 -11.079352 -12.973791 -9.983115 -166.753316 75.420080 -170.741971 22.421941 22.098803 -7.383496 0.000879 0.000005 0.000390 12.810171 -15.547393 -8.536636 6.439219 70.238580 -6.321885 3.848442 -13.186341 12.319319 0.002008 0.001757 0.000890
